<svg width="20" height="18" viewBox="0 0 20 18" fill="none" xmlns="http://www.w3.org/2000/svg">
<path d="M10.0502 0.0148396C9.90825 0.046495 9.77751 0.220089 9.79181 0.368155L9.8107 8.49339L10.0206 8.70375H18.2763C18.5669 8.57866 18.5153 8.24474 18.5031 7.97618C18.3136 3.71699 14.7258 0.14963 10.4619 0.00718101C10.3418 0.00309643 10.1616 -0.0101784 10.0502 0.0148396ZM5.9737 17.2808C8.69888 18.232 11.8004 17.6541 14.0139 15.8283C14.258 15.6271 14.9168 15.164 14.6278 14.8342L8.99918 9.19083L8.99203 1.24838C8.96241 0.88128 8.52013 0.950207 8.24689 0.962971C7.59471 0.993095 6.8363 1.1432 6.21169 1.33467C3.89509 2.04334 2.01821 3.76192 1.00751 5.95023C1.15664 5.96708 1.31598 5.81953 1.46613 5.75928C4.16883 4.68146 6.90116 7.06481 6.11517 9.87551C5.90067 10.6429 5.41651 11.2285 4.82715 11.7396C6.01813 11.5829 6.72598 12.9675 5.86492 13.8222C6.35725 14.3415 6.38125 15.1124 5.86083 15.6189C6.31384 16.0693 6.38381 16.7779 5.97268 17.2808H5.9737ZM11.0814 9.53087C10.85 9.67332 10.802 9.89542 10.9961 10.0971L16.6308 15.7343C16.9413 16.0621 17.2758 15.6072 17.4919 15.3708C18.6691 14.0836 19.4821 12.0873 19.573 10.3442C19.5848 10.115 19.644 9.62125 19.3846 9.54006L11.0819 9.53087H11.0814Z" fill="white"/>
<path d="M0.0141723 9.29395C-0.00472411 9.11678 -0.00472411 8.74509 0.0141723 8.56792C0.260337 6.26473 3.23576 5.28188 4.84758 6.96166C6.7173 8.91103 4.99875 12.1465 2.33588 11.6911C1.19495 11.496 0.139808 10.4678 0.0141723 9.29395ZM3.70613 8.96361C3.41911 8.67616 2.55345 8.62715 2.44926 8.40607C2.25212 7.98791 2.86754 7.8327 3.16018 8.03846C3.33586 8.16202 3.41604 8.66748 3.79551 8.39484C4.10806 8.17018 3.73575 7.65042 3.50389 7.50389C3.41758 7.44926 3.14945 7.38084 3.12647 7.34663C3.04424 7.22358 3.23321 6.84985 2.89001 6.77837C2.54681 6.70689 2.45335 7.1133 2.49267 7.37829C1.79146 7.5141 1.55091 8.46581 2.08052 8.92838C2.43905 9.24187 2.86345 9.17346 3.18265 9.35471C3.55087 9.56404 3.18775 9.92706 2.84149 9.8903C2.25774 9.82903 2.33231 9.09279 1.85836 9.28527C1.33437 9.49767 2.12496 10.4177 2.49165 10.4468C2.4799 10.77 2.49931 11.1381 2.9278 11.0422C3.21482 10.9778 3.04935 10.6465 3.12749 10.5168C3.152 10.4764 3.48805 10.3621 3.58662 10.288C4.00643 9.97403 4.08661 9.34399 3.70664 8.96412L3.70613 8.96361Z" fill="white"/>
<path d="M0.0141682 13.0773V12.7715C0.138272 12.5596 0.262886 12.3896 0.528969 12.3502C1.984 12.4483 3.60347 12.2226 5.03909 12.3497C5.8118 12.4181 5.86798 13.4597 4.96248 13.5373C3.58509 13.6558 2.04017 13.4464 0.644901 13.5353C0.335919 13.5041 0.127547 13.3673 0.0141682 13.0773Z" fill="white"/>
<path d="M0.0141682 16.6697V16.3639C0.107118 16.1535 0.242968 15.9728 0.490665 15.9426C1.96408 16.0478 3.62645 15.8053 5.07739 15.9421C5.81538 16.0116 5.7975 17.024 5.07739 17.0914C3.63922 17.2267 1.99063 16.9873 0.52999 17.0899C0.260333 17.0593 0.127036 16.9 0.0141682 16.6697Z" fill="white"/>
<path d="M0.0141682 14.5677C0.105586 14.4002 0.183725 14.2542 0.375244 14.1837L5.11468 14.1465C5.76788 14.2598 5.80159 15.1441 5.15298 15.2947H0.490665C0.242458 15.2646 0.106608 15.0839 0.0141682 14.8735V14.5677Z" fill="white"/>
<path d="M5.97371 17.2808C6.38483 16.7774 6.31435 16.0692 5.86186 15.6189C6.38177 15.1124 6.35827 14.3419 5.86594 13.8222C6.72701 12.967 6.01865 11.5823 4.82817 11.7396C5.41703 11.2285 5.90169 10.6428 6.11619 9.87546C6.90218 7.06476 4.16986 4.68141 1.46716 5.75923C1.3165 5.81948 1.15715 5.96652 1.00854 5.95019C2.01924 3.76187 3.89561 2.04329 6.21272 1.33462C6.83732 1.14366 7.59574 0.993045 8.24792 0.962921C8.52166 0.950157 8.96394 0.88123 8.99305 1.24833L9.0002 9.19078L14.6288 14.8341C14.9184 15.1645 14.259 15.6271 14.0149 15.8282C11.801 17.654 8.69939 18.232 5.97473 17.2808H5.97371Z" fill="white"/>
<path d="M10.0502 0.0148396C10.1616 -0.0101784 10.3418 0.00309643 10.4619 0.00718101C14.7263 0.149631 18.3136 3.71699 18.5031 7.97567C18.5148 8.24423 18.5669 8.57815 18.2763 8.70324H10.0206L9.8107 8.49288L9.79181 0.367645C9.7775 0.219579 9.90774 0.046495 10.0502 0.014329V0.0148396Z" fill="white"/>
<path d="M11.0814 9.53087L19.384 9.54003C19.6435 9.62121 19.5848 10.1149 19.5725 10.3442C19.4821 12.0873 18.669 14.0836 17.4913 15.3708C17.2753 15.6072 16.9408 16.0621 16.6303 15.7343L10.9955 10.0971C10.801 9.89539 10.8495 9.67329 11.0808 9.53084L11.0814 9.53087Z" fill="white"/>
</svg>
