<svg width="31" height="33" viewBox="0 0 31 33" fill="none" xmlns="http://www.w3.org/2000/svg">
<path fill-rule="evenodd" clip-rule="evenodd" d="M6.44851 0.0831807C6.09729 0.223397 5.77621 0.534771 5.60629 0.89984C5.44947 1.23679 5.43368 1.36701 5.43303 2.32649C5.43231 3.3354 5.44114 3.39975 5.63149 3.77525C6.10193 4.70343 7.24749 4.93227 8.0212 4.25271C8.47375 3.85518 8.54364 3.5967 8.54364 2.32135C8.54364 1.08049 8.47455 0.805349 8.06705 0.423033C7.66339 0.0443407 6.93097 -0.109499 6.44851 0.0831807ZM23.3589 0.135934C23.002 0.30615 22.7143 0.605278 22.566 0.960347C22.3926 1.37556 22.4086 3.33866 22.5886 3.73503C23.127 4.92067 24.7762 4.94452 25.3689 3.77525C25.5592 3.39975 25.5681 3.33518 25.5681 2.32135C25.5681 1.30752 25.5592 1.24295 25.3689 0.867449C25.0892 0.31557 24.6953 0.0530362 24.0998 0.0215872C23.7674 0.00405109 23.5724 0.0341957 23.3589 0.135934ZM2.46286 2.37483C2.08832 2.44475 1.399 2.81801 1.0333 3.14902C0.516431 3.61677 0.155581 4.35053 0.0638839 5.12017C0.0265097 5.43408 0.0049253 6.66914 0.0160796 7.86478L0.0362154 10.0387H15.5002H30.9642L30.9843 7.86478C30.9954 6.66914 30.9739 5.43408 30.9365 5.12017C30.8008 3.98119 30.1481 3.07018 29.1215 2.58685C28.7153 2.39562 28.5542 2.36309 27.8721 2.33497L27.0891 2.30273V2.77316C27.0891 4.83415 25.6522 6.28805 23.759 6.14277C22.0959 6.01509 20.9325 4.69256 20.9325 2.92968V2.32135H15.5002H10.0679V2.92968C10.0679 4.69256 8.90449 6.01509 7.24141 6.14277C5.3522 6.28776 3.91126 4.83379 3.91126 2.7825V2.32135L3.27749 2.3312C2.92896 2.33664 2.56238 2.35628 2.46286 2.37483ZM0.00239028 20.419C0.00369404 25.2713 0.0336802 29.4664 0.0690988 29.7413C0.206935 30.8115 0.882497 31.7291 1.8832 32.2057L2.354 32.4298H15.5002H28.6464L29.1172 32.2054C30.1188 31.7278 30.7934 30.8115 30.9313 29.7413C30.9667 29.4664 30.9967 25.2713 30.998 20.419L31.0004 11.5966H15.5002H0L0.00239028 20.419ZM5.51951 15.6638C4.86402 15.9885 4.70749 16.4055 4.70959 17.8211C4.7114 19.0276 4.78702 19.295 5.23863 19.6917C5.62954 20.0351 5.90745 20.0895 7.13443 20.0624C8.39306 20.0348 8.65026 19.9482 9.01763 19.4284L9.23492 19.1209L9.25759 17.8648C9.27809 16.7318 9.26643 16.5817 9.13794 16.331C8.97388 16.0109 8.75333 15.7934 8.4237 15.6268C8.23842 15.5332 7.95485 15.5096 7.0113 15.5097C5.95316 15.5097 5.79837 15.5257 5.51951 15.6638ZM14.0701 15.6288C13.7406 15.7913 13.351 16.2456 13.26 16.5733C13.1595 16.9355 13.1603 18.5461 13.2612 18.947C13.3628 19.3504 13.7089 19.7678 14.0826 19.9376C14.5157 20.1345 16.4847 20.1345 16.9177 19.9376C17.2915 19.7678 17.6376 19.3504 17.7392 18.947C17.8401 18.5461 17.8409 16.9355 17.7403 16.5733C17.6476 16.2393 17.2532 15.7849 16.918 15.6258C16.5645 15.458 14.4119 15.4602 14.0701 15.6288ZM22.5622 15.6276C22.2391 15.8016 22.0218 16.0201 21.8624 16.331C21.7339 16.5817 21.7223 16.7318 21.7428 17.8648L21.7654 19.1209L21.9827 19.4284C22.3501 19.9482 22.6073 20.0348 23.8659 20.0624C25.1116 20.0898 25.3792 20.0347 25.7856 19.6674C26.2363 19.26 26.3067 18.9764 26.2795 17.6774C26.2525 16.3849 26.1692 16.1332 25.6462 15.7633L25.3388 15.5459L24.0592 15.5282C22.9952 15.5136 22.7428 15.5303 22.5622 15.6276ZM5.61273 24.1204C5.25014 24.2884 4.88473 24.6977 4.77797 25.0554C4.72799 25.2228 4.70568 25.7488 4.72039 26.4153C4.74798 27.6745 4.83454 27.9319 5.35415 28.2994L5.66148 28.5168L6.91699 28.5395C8.04952 28.56 8.1996 28.5483 8.45014 28.4197C8.77252 28.2544 8.98743 28.0349 9.15865 27.6963C9.26172 27.4924 9.27686 27.2629 9.25767 26.1986L9.23492 24.9417L9.01763 24.6343C8.6436 24.1051 8.40117 24.027 7.062 24.005C6.05956 23.9886 5.86392 24.0041 5.61273 24.1204ZM14.0826 24.125C13.7089 24.2949 13.3628 24.7122 13.2612 25.1156C13.1603 25.5165 13.1595 27.1271 13.26 27.4893C13.3528 27.8233 13.7471 28.2777 14.0824 28.4368C14.4366 28.605 16.5638 28.605 16.918 28.4368C17.2532 28.2777 17.6476 27.8233 17.7403 27.4893C17.8409 27.1271 17.8401 25.5165 17.7392 25.1156C17.6376 24.7122 17.2915 24.2949 16.9177 24.125C16.4847 23.9282 14.5157 23.9282 14.0826 24.125ZM22.707 24.0753C22.3501 24.2001 22.0432 24.4717 21.8815 24.8059C21.746 25.086 21.7292 25.2496 21.7292 26.2969C21.7292 27.2364 21.7528 27.52 21.8464 27.7052C22.0129 28.035 22.2302 28.2556 22.5502 28.4197C22.8008 28.5483 22.9509 28.56 24.0834 28.5395L25.3389 28.5168L25.6462 28.2994C26.1658 27.9319 26.2524 27.6745 26.28 26.4153C26.307 25.1878 26.2527 24.9098 25.9094 24.5187C25.5086 24.062 25.2491 23.9904 24.0108 23.9951C23.4132 23.9974 22.8266 24.0335 22.707 24.0753Z" fill="#0F1E35"/>
</svg>
