<svg width="33" height="29" viewBox="0 0 33 29" fill="none" xmlns="http://www.w3.org/2000/svg">
<path d="M7.34117 22.0718C2.98279 17.8737 -1.44075 12.9478 0.448143 6.34399C2.56019 -1.04392 12.1291 -2.42452 15.7064 4.57528C15.894 4.94265 16.0224 5.42063 16.2041 5.77714C16.2435 5.85515 16.1655 5.91638 16.3581 5.88182C17.7908 1.34004 22.1768 -1.04589 26.7801 0.485806L28.2602 2.44314C32.1476 8.56106 28.3955 12.689 23.8248 16.6393C21.6308 18.5354 17.0641 22.0896 14.4356 23.0683C12.7126 23.7092 9.33867 22.7888 7.64134 22.1044C7.56235 22.0728 7.38461 21.9247 7.34216 22.0708L7.34117 22.0718ZM5.9914 2.27822C4.85095 2.45796 3.31258 4.0499 2.74582 5.01968C1.18079 7.69991 2.5829 9.50022 5.23307 7.50733C6.36068 6.65902 8.03827 4.38962 7.52482 2.92606C7.28587 2.24464 6.63123 2.1765 5.9914 2.27822Z" fill="#F05253"/>
<path d="M7.34117 22.0718C7.38363 21.9257 7.56136 22.0728 7.64035 22.1054C9.33769 22.7898 12.7126 23.7102 14.4346 23.0693C17.0631 22.0916 21.6298 18.5364 23.8238 16.6403C28.3945 12.69 32.1466 8.56206 28.2592 2.44414L26.7791 0.486803C31.5393 2.07084 33.2999 7.45007 32.2394 12.0462C31.0762 17.0886 25.1933 22.4293 21.2714 25.6181C20.048 26.6126 18.2736 28.0861 16.8972 28.7833C16.0806 29.1971 15.9779 28.966 15.2552 28.5334C12.5359 26.9069 9.62502 24.2721 7.34018 22.0718L7.34117 22.0718Z" fill="#D74543"/>
<path d="M5.9914 2.27822C6.63123 2.17749 7.28686 2.24464 7.52482 2.92606C8.03728 4.38962 6.35969 6.65902 5.23307 7.50733C2.5829 9.50121 1.18178 7.69991 2.74582 5.01968C3.31258 4.0499 4.85095 2.45796 5.9914 2.27822Z" fill="#F48283"/>
</svg>
