<svg width="114" height="66" viewBox="0 0 114 66" fill="none" xmlns="http://www.w3.org/2000/svg">
<g filter="url(#filter0_d_46_27)">
<rect x="1.49956" y="2.78497" width="103.463" height="54.9307" rx="27.3612" fill="white"/>
</g>
<path d="M32.1876 13.9214C41.2176 13.9214 48.5415 21.2303 48.5417 30.25C48.5417 39.2698 41.2177 46.5795 32.1876 46.5795C23.1577 46.5794 15.8346 39.2697 15.8346 30.25C15.8348 21.2304 23.1578 13.9216 32.1876 13.9214Z" fill="white" stroke="#0F1E35" stroke-width="2.12102"/>
<path d="M38.2282 24.4138C38.2282 27.746 35.527 30.4473 32.1948 30.4473C28.8626 30.4473 26.1614 27.746 26.1614 24.4138C26.1614 21.0817 28.8626 18.3804 32.1948 18.3804C35.527 18.3804 38.2282 21.0817 38.2282 24.4138Z" fill="#0F1E35"/>
<path d="M41.5592 37.2075C41.5592 39.9209 37.3666 42.1205 32.1949 42.1205C27.0231 42.1205 22.8306 39.9209 22.8306 37.2075C22.8306 34.4941 27.0231 32.2944 32.1949 32.2944C37.3666 32.2944 41.5592 34.4941 41.5592 37.2075Z" fill="#0F1E35"/>
<path d="M67.7821 26.4746L76.3857 35.0368L84.4764 26.4746" stroke="#0F1E35" stroke-width="2.65287" stroke-linecap="round"/>
<defs>
<filter id="filter0_d_46_27" x="0.000592227" y="-9.64313e-05" width="113.999" height="65.4676" filterUnits="userSpaceOnUse" color-interpolation-filters="sRGB">
<feFlood flood-opacity="0" result="BackgroundImageFix"/>
<feColorMatrix in="SourceAlpha" type="matrix" values="0 0 0 0 0 0 0 0 0 0 0 0 0 0 0 0 0 0 127 0" result="hardAlpha"/>
<feMorphology radius="3.53503" operator="erode" in="SourceAlpha" result="effect1_dropShadow_46_27"/>
<feOffset dx="3.75597" dy="2.47452"/>
<feGaussianBlur stdDeviation="4.39227"/>
<feComposite in2="hardAlpha" operator="out"/>
<feColorMatrix type="matrix" values="0 0 0 0 0 0 0 0 0 0 0 0 0 0 0 0 0 0 0.15 0"/>
<feBlend mode="normal" in2="BackgroundImageFix" result="effect1_dropShadow_46_27"/>
<feBlend mode="normal" in="SourceGraphic" in2="effect1_dropShadow_46_27" result="shape"/>
</filter>
</defs>
</svg>
